<?xml version="1.0" standalone="no"?>
<!DOCTYPE svg PUBLIC "-//W3C//DTD SVG 1.1//EN" "http://www.w3.org/Graphics/SVG/1.1/DTD/svg11.dtd">
<svg xmlns="http://www.w3.org/2000/svg" width="223.1571044921875" height="188.11720275878906" viewBox="0 0 223.1571 188.1172">
  <g id="Layer_2" data-name="Layer 2">
    <g id="Layer_1-2" data-name="Layer 1">
      <g>
        <path d="M23.31,19.7422V34.7271H49.5933V54.4692H23.31V69.93H51.02V89.6719H0V0H51.02V19.7422Z" fill="#fff"/>
        <path d="M79.5032,69.93h27.9482V89.6719H56.1931V0h23.31Z" fill="#fff"/>
        <path d="M136.3538,69.93h27.9483V89.6719H113.0438V0h23.31Z" fill="#fff"/>
        <path d="M0,96.6611H24.9746L41.2681,127.94l15.936-31.2784H81.8223L32.9429,188.1172H8.6816l20.8125-38.77Z" fill="#fff"/>
        <path d="M198.833,98.5645,191.5781,112.36a26.2435,26.2435,0,0,0-3.1514-1.3086,27.0656,27.0656,0,0,0-3.5083-.9512q-1.31-.2373-2.5571-.416a17.2067,17.2067,0,0,0-2.438-.1787q-.5961,0-1.2485.0595a4.4712,4.4712,0,0,0-1.249.2969,8.3013,8.3013,0,0,0-2.9732,1.249,2.9058,2.9058,0,0,0-1.3081,2.5567,3.2911,3.2911,0,0,0,1.7246,3.0332,13.2531,13.2531,0,0,0,3.8648,1.4863,18.3859,18.3859,0,0,0,2.26.5352c.7134.1191,1.3472.22,1.9029.2968a29.2877,29.2877,0,0,1,12.666,5.59q5.0537,4.0445,5.0542,12.4873,0,11.6573-8.5625,16.9472a37.8137,37.8137,0,0,1-18.91,5.6495h-1.3081a46.3062,46.3062,0,0,1-12.7851-1.7842,49.6717,49.6717,0,0,1-11.833-5.1133l7.8491-15.2227a26.0252,26.0252,0,0,0,4.6382,2.794,51.6609,51.6609,0,0,0,5.3515,2.2,35.6882,35.6882,0,0,0,3.687.9521,17.6122,17.6122,0,0,0,3.4488.3565,8.878,8.878,0,0,0,1.0112-.06c.3564-.0391.7319-.0986,1.1294-.1787a7.8355,7.8355,0,0,0,3.2114-1.4268,3.5075,3.5075,0,0,0,1.4273-2.9736,3.8572,3.8572,0,0,0-2.4976-3.7461,28.5862,28.5862,0,0,0-5.9468-1.8428q-1.31-.2373-2.5566-.5351-1.2488-.296-2.5571-.6543a25.33,25.33,0,0,1-9.336-4.5791q-4.2224-3.27-4.2217-11.4766,0-11.06,8.2061-16.2929a33.5377,33.5377,0,0,1,17.958-5.3516h.7134a59.0949,59.0949,0,0,1,10.2876.8916,41.328,41.328,0,0,1,9.8115,3.0332Z" fill="#fff"/>
        <path d="M223.1571,43.2732c-28.082,5.85-32.8244,10.5924-38.6744,38.6745-5.85-28.0821-10.5924-32.8245-38.6745-38.6745,28.0821-5.85,32.8245-10.5923,38.6745-38.6744,2.8308,13.5891,5.4023,21.7128,10.4846,27.1414C200.3877,37.53,208.6641,40.2541,223.1571,43.2732Z" fill="#ff0"/>
        <path d="M122.376,96.6611v6.0654a20.0146,20.0146,0,0,0-7.4331-5.53,27.7463,27.7463,0,0,0-9.0982-2.3184,6.1531,6.1531,0,0,0-1.1889-.1191h-1.1895q-13.5579,0-22.061,9.6924a34.57,34.57,0,0,0,.1186,45.55q8.6214,9.6943,22.18,9.6923h.9517a3.9751,3.9751,0,0,0,.9511-.1191,25.2575,25.2575,0,0,0,9.3956-2.3184,16.079,16.079,0,0,0,7.1357-6.3632h.2378v6.7793h21.645V96.6611Zm-17.4746,48.753c-2.7512-13.2066-4.9815-15.4369-18.1883-18.188,13.2068-2.7512,15.4371-4.9815,18.1883-18.1881,1.4734,7.0731,2.7973,10.9978,5.7383,13.54,2.55,2.2047,6.3161,3.37,12.45,4.6479C109.8828,129.9772,107.6526,132.2075,104.9014,145.4141Z" fill="#fff"/>
      </g>
    </g>
  </g>
</svg>